<?xml version="1.0" encoding="UTF-8" standalone="no"?>
<!-- Created with Inkscape (http://www.inkscape.org/) -->

<svg
   version="1.1"
   id="svg1"
   width="327.67999"
   height="327.67999"
   viewBox="0 0 327.67999 327.67999"
   sodipodi:docname="winmol_logo.svg"
   inkscape:version="1.3.1 (9b9bdc1480, 2023-11-25, custom)"
   xmlns:inkscape="http://www.inkscape.org/namespaces/inkscape"
   xmlns:sodipodi="http://sodipodi.sourceforge.net/DTD/sodipodi-0.dtd"
   xmlns="http://www.w3.org/2000/svg"
   xmlns:svg="http://www.w3.org/2000/svg">
  <defs
     id="defs1" />
  <sodipodi:namedview
     id="namedview1"
     pagecolor="#ffffff"
     bordercolor="#000000"
     borderopacity="0.25"
     inkscape:showpageshadow="2"
     inkscape:pageopacity="0.0"
     inkscape:pagecheckerboard="0"
     inkscape:deskcolor="#d1d1d1"
     inkscape:zoom="1.4142136"
     inkscape:cx="17.677669"
     inkscape:cy="53.033008"
     inkscape:window-width="1850"
     inkscape:window-height="1016"
     inkscape:window-x="70"
     inkscape:window-y="27"
     inkscape:window-maximized="1"
     inkscape:current-layer="g1" />
  <g
     inkscape:groupmode="layer"
     inkscape:label="Image"
     id="g1">
    <path
       style="fill:#6a9de8"
       d="m 7.5546898,208.95956 c 0,-2.21652 0.10557,-2.9023 0.46819,-3.04145 0.2575,-0.0988 8.5534402,-0.18918 18.4354302,-0.20082 10.448583,-0.0123 18.551173,-0.15202 19.362653,-0.33388 4.01071,-0.89882 8.00564,-3.03555 10.68515,-5.71506 8.18661,-8.18661 7.55646,-21.51508 -1.32635,-28.05423 -5.57705,-4.1056 -13.60663,-3.7979 -18.49872,0.70889 -1.05132,0.96851 -2.1869,2.42698 -2.74072,3.52 -0.86897,1.715 -0.94563,2.13867 -0.94563,5.22629 0,3.16516 0.0575,3.46206 0.99161,5.12 2.69826,4.78912 8.67741,6.14964 12.07862,2.74843 1.21617,-1.21617 1.48977,-2.19986 1.48977,-5.35635 0,-2.56564 0.0604,-2.61626 3.56995,-2.9921 2.01857,-0.21618 2.10614,-0.19608 2.29989,0.52764 0.57474,2.14686 -0.0276,7.18935 -1.11283,9.31665 -1.46806,2.87763 -4.55292,5.21694 -7.9079,5.99673 -4.81741,1.11969 -9.87618,-0.4869 -13.35094,-4.24005 -7.593723,-8.20212 -4.792693,-21.74001 5.60164,-27.07376 3.74316,-1.92077 5.98862,-2.39593 10.4739,-2.21637 4.46492,0.17875 6.78214,0.85605 10.2195,2.98704 7.72982,4.7921 12.12764,14.60732 10.67379,23.82214 -1.57391,9.97572 -8.88574,18.02265 -19.24428,21.17901 -2.29413,0.69905 -2.74588,0.71613 -21.782723,0.82345 l -19.4400002,0.10959 z m 77.2800032,-31.41026 -8.64,-0.16 -0.0919,-2.7612 c -0.077,-2.31316 -0.007,-2.79371 0.4302,-2.96155 0.28715,-0.11019 8.44423,-0.2015 18.12684,-0.20292 19.821607,-0.003 20.119297,-0.0305 24.882857,-2.30527 2.21267,-1.05664 3.20918,-1.79767 5.4479,-4.05112 4.34776,-4.37641 5.98493,-8.54571 5.66935,-14.43794 -0.5224,-9.75387 -7.73122,-16.53264 -17.17791,-16.15315 -1.84557,0.0741 -2.69312,0.3141 -4.92492,1.39435 -3.06982,1.48588 -4.89867,3.27713 -6.24721,6.1188 -1.15304,2.42973 -1.19453,6.6987 -0.089,9.15784 0.63282,1.40764 2.93377,4.18792 2.93377,3.54493 0,-0.12252 0.27865,0.0559 0.61922,0.39645 1.46931,1.46931 4.88092,1.68658 7.32881,0.46674 2.31737,-1.15479 2.93197,-2.4182 2.93197,-6.02712 0,-2.56882 0.0417,-2.73553 0.72,-2.88015 2.87977,-0.61395 4.50075,-0.8485 4.87403,-0.70526 0.66234,0.25416 0.92875,3.4241 0.5192,6.17776 -0.70533,4.74231 -3.54316,8.25019 -7.85126,9.70506 -2.56836,0.86735 -6.4206,0.8578 -8.82197,-0.0219 -0.968,-0.3546 -2.03603,-0.73298 -2.37341,-0.84085 -0.33737,-0.10786 -1.58785,-1.1725 -2.77885,-2.36586 -7.834867,-7.85044 -6.293157,-20.46483 3.28731,-26.89709 3.35117,-2.24996 6.94114,-3.23542 11.76389,-3.22923 5.16051,0.007 9.1762,1.49128 13.25863,4.90193 3.26458,2.72737 5.27402,5.68437 6.97966,10.2709 0.87989,2.36608 1.00798,3.15152 1.13923,6.98581 0.16638,4.86037 -0.20948,7.10771 -1.82283,10.89901 -3.0422,7.14908 -9.62088,12.82866 -17.37479,15.00021 -4.62832,1.2962 -8.85089,1.42278 -32.718837,0.98078 z M 26.66188,157.82983 c -0.30608,-0.30608 -0.28134,-4.6599 0.0293,-5.14866 0.18713,-0.29446 4.645873,-0.41645 18.475103,-0.50545 20.43035,-0.13149 20.07768,-0.0962 25.0736,-2.51069 3.6639,-1.77076 7.40411,-5.44896 9.06601,-8.91573 1.26035,-2.62911 2.16884,-6.18126 2.16884,-8.48 0,-1.92393 -0.85421,-5.65051 -1.77295,-7.73465 -2.93175,-6.65063 -9.89841,-10.56685 -16.77686,-9.4309 -7.47709,1.23482 -12.4492,7.84951 -10.88868,14.48586 0.50091,2.13023 1.00744,3.14871 2.29567,4.61592 2.90897,3.31313 8.31273,3.66211 11.06268,0.71444 0.83183,-0.89164 1.45678,-3.75006 1.30298,-5.95963 l -0.10284,-1.47736 1.6,-0.37612 c 0.88,-0.20687 2.212,-0.38995 2.96,-0.40684 l 1.36,-0.0307 -0.008,3.6 c -0.008,3.96114 -0.58837,6.00635 -2.36336,8.33348 -1.91156,2.50618 -6.12989,4.39076 -9.81004,4.38272 -8.92309,-0.0195 -15.80592,-8.76808 -14.36128,-18.25426 1.10117,-7.23088 6.77038,-13.28613 14.20951,-15.17713 2.22497,-0.56558 7.39254,-0.638 9.83702,-0.13786 2.85512,0.58416 7.21473,2.88928 9.60109,5.07654 5.03023,4.61053 7.61466,10.69858 7.61466,17.93757 0,5.08978 -1.23889,9.16789 -4.13004,13.59503 -3.39218,5.19436 -8.51479,8.94241 -14.97157,10.95421 l -2.81839,0.87815 -19.21281,0.0996 c -10.56704,0.0548 -19.315043,-0.003 -19.440003,-0.12755 z"
       id="path2403" />
    <path
       id="path2306"
       style="display:inline;fill:#5b9503"
       d="m 227.00753,95.677568 -2.15235,0.333985 -2.15039,0.335937 -1.75976,0.3125 -1.75977,0.3125 -3.45703,0.970704 -3.45508,0.972656 -2.94531,1.14649 -2.94336,1.14648 -3.16602,1.62305 -3.16796,1.62304 -2.91211,1.90821 -2.91407,1.9082 -2.73632,2.17578 -2.73829,2.17774 -3.42773,3.54882 -3.42969,3.54883 -2.18164,2.95313 -2.17969,2.95312 -1.45312,2.40821 -1.45313,2.41015 -1.10742,2.23047 -1.10547,2.23047 -0.91015,2.24023 -0.91016,2.24024 -0.36523,0.32031 -0.36524,0.31836 -0.85742,2.76758 -0.85937,2.76758 -0.77735,3.67187 -0.77734,3.67188 -0.39844,5.11523 -0.39648,5.11524 0.37109,4.76562 0.37109,4.76563 0.82032,4 0.82226,4 1.28516,3.83984 1.2832,3.83984 2.0332,4.16016 2.03321,4.16016 1.35547,2.24023 1.35742,2.24024 2.42969,3.19921 2.42773,3.20118 3.56641,3.55664 3.5664,3.55664 3.4668,2.60351 3.46875,2.60352 h 0.49023 0.49219 l 1.17774,0.79883 1.17773,0.80078 h 0.16211 0.16406 l 1.55078,0.91406 1.55274,0.91602 2.91601,1.3125 2.91602,1.3125 3.30664,1.125 3.30469,1.125 3.36132,0.78515 3.35938,0.78516 2.00781,0.22461 2.00586,0.22461 0.17188,0.27734 0.17187,0.27734 h 7.16211 7.16211 l 0.17578,-0.28124 0.17383,-0.28321 2.16406,-0.23047 2.16407,-0.23047 3.68164,-0.91211 3.67968,-0.91015 2.51563,-0.82617 2.51758,-0.82422 1.48242,-0.67188 1.48437,-0.67187 2.39453,-1.10352 2.39454,-1.10156 2.72656,-1.63477 2.72461,-1.63281 3.03906,-2.23242 3.04102,-2.23047 4.18164,-4.1914 4.18164,-4.19141 1.92187,-2.56055 1.92188,-2.55859 1.95507,-3.20117 1.95704,-3.19922 1.41601,-3.04102 1.41602,-3.03906 0.49609,-1.11914 0.4961,-1.1211 1.1621,-3.83984 1.16407,-3.83984 0.62304,-3.19922 0.625,-3.20117 v -0.40039 l 0.002,-0.39844 h -6.72071 -6.71875 v 0.79883 0.80078 h -0.0586 c 0.006,0.0576 0.01,0.11588 0.0117,0.17383 -0.016,0.35512 -0.0862,0.69775 -0.22656,1.02539 -0.0154,0.0358 -0.0309,0.0711 -0.0469,0.10547 v 4.41406 5.48047 h -6.08008 -6.08008 v -4.95508 -4.95508 l -0.38671,-1.44531 -0.38672,-1.44336 h -7.29297 -7.29297 v 6.72461 6.72656 l -6.96094,-0.0859 -6.96093,-0.0859 -0.0859,-6.64063 -0.0859,-6.63867 h -6.86719 -6.86719 l -0.0859,6.79883 -0.0879,6.80078 -7.01563,0.0859 -7.01758,0.0859 -0.25781,-0.40625 -0.25781,-0.40625 -0.006,-6.4414 -0.004,-6.43946 0.42383,-0.35351 0.42383,-0.35156 6.53711,-0.0879 6.53515,-0.0859 v -13.7598 -13.75977 l -6.64062,-0.0879 -6.64062,-0.0859 v 6.88672 6.88672 h -7.04493 -7.04687 l 0.0859,-6.96094 0.0859,-6.95898 6.79493,-0.0859 6.79296,-0.0879 0.0859,-6.95312 0.0859,-6.95313 6.7207,-0.16016 6.7207,-0.16015 v -6.7207 -6.71875 l -6.56054,-0.16016 -6.56055,-0.16015 -0.0859,-6.96094 -0.0859,-6.95898 1.04687,-0.0137 1.04492,-0.0137 5.51172,0.0273 5.50977,0.0254 0.1875,-0.7461 0.1875,-0.746095 -0.0977,-1.90625 -0.0977,-1.90625 -2.00976,-0.0957 z m 22.41601,16.990242 v 6.40039 6.40039 h 6.40039 6.40039 v -6.40039 -6.40039 h -6.40039 z m 37.91992,45.38671 -6.39843,0.0176 -6.40039,0.0156 -0.0859,6.41016 -0.0879,6.41016 h 6.57422 6.57226 l -0.0859,-6.42578 z m -2.5996,15.4043 c -0.002,0.011 -0.009,0.0504 -0.0137,0.0781 0.008,-0.0319 0.0133,-0.0614 0.0156,-0.0781 z m -24.59961,12.33008 h 6.56054 6.56055 l 0.0898,5.75977 0.0918,5.75976 -0.17773,0.72071 -0.17774,0.71874 h -6.38672 -6.38867 l -0.18164,-0.72851 -0.18359,-0.73047 0.0957,-5.75 z" />
    <path
       id="path2305"
       style="display:inline;fill:#005727;fill-opacity:1"
       d="m 141.04468,81.849409 -4.04101,8.238281 -4.03907,8.240234 -3.01758,6.240236 -3.01757,6.24023 -2.72266,5.59961 -2.72461,5.59961 -1.47656,3.00586 -1.47852,3.00586 v 0.23633 0.23828 l 2.64063,0.83398 2.64062,0.83594 1.54493,0.91797 1.54492,0.91797 1.66797,1.39257 1.66601,1.39258 1.30078,1.61133 1.30274,1.61133 0.85547,1.48437 0.85546,1.48438 1.01758,2.67578 1.01758,2.67578 0.008,5.28125 0.008,5.2793 -0.99219,2.79297 -0.99024,2.79492 -1.08398,1.79492 -1.08203,1.79492 -1.70117,2.06836 -1.70118,2.06836 -2.13867,1.58008 -2.13867,1.58008 -2.40039,1.25 -2.40039,1.25 -2.49805,0.69531 -2.5,0.69531 -3.90039,0.30664 -3.90039,0.30665 -6.32617,-0.0567 -6.326167,-0.0566 -0.14649,0.14649 -0.14648,0.14648 -3.40625,7.01953 -3.4043,7.02149 -3.04101,6.24023 -3.04102,6.24024 -2.00391,4.16015 -2.0039,4.16016 -1.65039,3.35937 -1.65235,3.36133 29.853517,0.16016 29.85352,0.16016 v 0.0195 h 0.002 c 0.009,0 0.0183,-2e-5 0.0273,0 0.009,2e-5 0.0183,-1.3e-4 0.0274,0 0.009,1.2e-4 0.0164,7e-4 0.0254,0.002 0.008,0.001 0.0154,6.5e-4 0.0234,0.002 -0.002,4.2e-4 -0.001,0 0.004,0 0.004,1e-5 0.01,0 0.0137,0 h 0.006 c 0.0101,1e-5 0.0192,-7e-5 0.0293,0 0.0108,9e-5 0.0224,7.6e-4 0.0332,0.002 0.0111,0.001 0.0222,6.5e-4 0.0332,0.002 0.0111,0.001 0.0221,0.003 0.0332,0.004 0.004,4.3e-4 0.008,-3.2e-4 0.0117,0 0.014,-0.0173 0.042,-0.0293 0.082,-0.0293 h 0.0391 0.0449 0.041 0.041 0.0332 c 0.0153,0.001 0.0303,0.005 0.0449,0.01 0.005,0.001 0.0116,0.005 0.0156,0.006 0.008,0.001 0.0154,0.004 0.0234,0.006 0.003,1.5e-4 0.007,0.002 0.01,0.002 0.0106,0.001 0.0206,9e-4 0.0312,0.002 0.008,5.7e-4 0.0154,0.002 0.0234,0.002 0.005,1e-4 0.0105,-3e-5 0.0156,0 0.005,-0.001 0.0136,-0.004 0.0156,-0.004 0.0104,-0.002 0.0208,-0.003 0.0312,-0.004 0.006,-4.5e-4 0.0131,1.9e-4 0.0195,0 0.007,-0.002 0.0145,-0.003 0.0215,-0.004 0.008,-6.6e-4 0.0154,1.4e-4 0.0234,0 0.01,-1.2e-4 0.0193,2e-5 0.0293,0 0.01,-2e-5 0.0193,0 0.0293,0 h 0.0332 0.041 c 0.0211,-0.002 0.0417,7.3e-4 0.0625,0.004 0.016,0.002 0.0326,0.003 0.0488,0.004 0.0124,6.2e-4 0.0246,0.002 0.0371,0.002 0.012,1.3e-4 0.0232,-3e-5 0.0352,0 0.007,-5e-4 0.0143,6.4e-4 0.0215,0.002 0.002,1e-4 0.004,-1.3e-4 0.006,0 0.005,3.7e-4 0.0104,9.2e-4 0.0156,0.002 0.007,0.001 0.0135,0.004 0.0195,0.006 0.0108,0.001 0.0205,0.002 0.0312,0.004 0.0111,0.001 0.0224,0.003 0.0332,0.006 0.008,3.7e-4 0.0154,-2.6e-4 0.0234,0 0.008,2.3e-4 0.0154,-5e-5 0.0234,0 0.009,4e-5 0.0164,-1e-5 0.0254,0 0.009,1e-5 0.0164,0 0.0254,0 0.0103,0 0.0191,0.003 0.0293,0.004 0.007,0 0.0129,-6e-4 0.0195,0 0.004,-7.9e-4 0.009,-0.002 0.0137,-0.002 0.008,-2e-5 0.0174,9e-5 0.0254,0 0.009,-1.2e-4 0.0164,-8.2e-4 0.0254,-0.002 0.001,-8e-5 0.005,8.2e-4 0.004,0.002 0.01,-0.004 0.0204,-0.009 0.0312,-0.01 0.0127,-0.003 0.026,-0.0108 0.0391,-0.01 h 0.002 c 0.0125,-0.004 0.0277,-0.004 0.0449,-0.004 0.002,4e-5 0.003,-4e-5 0.004,0 0.009,0.001 0.0203,0.002 0.0293,0.004 0.011,0.002 0.0206,0.008 0.0312,0.0117 0.003,3e-5 0.006,7e-5 0.008,0 0.008,0 0.0154,2e-5 0.0234,0 0.008,-2e-5 0.0135,1e-4 0.0215,0 0.007,-1e-4 0.0145,-0.002 0.0215,-0.002 0.006,0 0.0116,-8.1e-4 0.0176,-0.002 0.007,-0.002 0.0125,-0.006 0.0195,-0.008 0.0112,-0.003 0.0215,-0.005 0.0312,-0.006 0.0167,-7.5e-4 0.0312,5.8e-4 0.043,0.006 0.006,-0.002 0.0117,-0.005 0.0176,-0.006 8e-4,-5e-4 0.007,-7e-4 0.0117,-0.002 h 0.002 c 0.0112,-0.004 0.0231,-0.007 0.0351,-0.006 0.008,3e-5 0.0174,-9e-5 0.0254,0 0.0119,1.5e-4 0.0233,-5.1e-4 0.0352,0 0.0137,0.001 0.0275,0.002 0.041,0.004 0.009,0.001 0.0164,0.003 0.0254,0.004 0.009,10e-4 0.0183,-3.2e-4 0.0273,0 0.0112,0 0.022,7.2e-4 0.0332,0.002 0.007,0.001 0.0155,0.004 0.0215,0.004 0.009,10e-4 0.0164,7.3e-4 0.0254,0.002 0.005,8.5e-4 0.0116,0.006 0.0176,0.006 0.009,0 0.0164,-2e-5 0.0254,0 0.009,4e-5 0.0183,-1.4e-4 0.0273,0 0.0116,6e-5 0.0236,-6.4e-4 0.0352,0 0.0103,0 0.0213,6.6e-4 0.0312,0.002 0.0112,1e-5 0.022,-5e-5 0.0332,0 0.0124,6e-5 0.0247,0.002 0.0371,0.002 0.0125,0 0.0247,7e-4 0.0371,0.002 0.0111,0.001 0.022,0.003 0.0332,0.002 h 0.0488 0.0547 0.0527 0.0488 0.0332 0.0312 0.0312 0.0352 l -0.002,-0.002 c 0.003,0 0.006,-1.9e-4 0.01,0 0.004,-1.1e-4 0.004,-0.0126 0.01,-0.0117 0.002,1.8e-4 0.008,0.002 0.01,0.002 0.002,3.5e-4 0.008,-4.4e-4 0.01,0 0.002,2.9e-4 0.004,0.005 0.006,0.006 0.002,5.4e-4 0.008,6.2e-4 0.01,0.002 0.006,0.002 0.0127,0.004 0.0195,0.006 0.004,0.002 0.0127,0.002 0.0195,0.004 h 0.002 c 0.004,10e-6 0.009,10e-6 0.01,0 h 0.0234 c 0.008,-1e-5 0.0174,10e-6 0.0254,0 0.007,-2e-5 0.0145,9e-5 0.0215,0 0.006,-9e-5 0.0116,3.9e-4 0.0176,0 0.003,-1.9e-4 0.005,2.6e-4 0.008,0 0.007,-0.001 0.0145,-0.0107 0.0215,-0.0117 0.007,-0.003 0.0164,-0.006 0.0234,-0.008 0.0117,-0.003 0.0234,-0.004 0.0352,-0.004 h 0.0234 0.0274 c 0.007,-1e-5 0.0164,3e-5 0.0234,0 0.006,-4e-5 0.0116,1.8e-4 0.0176,0 0.004,-1.5e-4 0.01,-0.003 0.0137,-0.004 0.005,-5e-4 0.009,-6.5e-4 0.0137,-0.002 0.005,-6.6e-4 0.009,-1.3e-4 0.0137,0 h 0.0195 0.0156 0.002 0.0156 0.0371 4.26758 4.05859 c 0.0174,-0.004 0.0359,-0.007 0.0547,-0.006 h 0.0586 0.0586 0.0645 c 0.0224,0 0.044,-1e-5 0.0664,0 0.0239,1e-5 0.0484,-4e-5 0.0723,0 0.023,5e-5 0.0454,-2.7e-4 0.0684,0 0.024,0 0.0483,-1e-4 0.0723,0.002 0.0304,0.002 0.0603,0.006 0.0898,0.0137 0.004,0.001 0.009,0.003 0.0137,0.004 v 0.002 c 0.025,0.001 0.0513,0.002 0.0762,0.004 0.0234,0.001 0.0452,0.002 0.0684,0.006 -0.001,1e-4 -0.005,0.002 -0.004,0.002 0.0164,6.1e-4 0.0344,0 0.0508,0 h 0.0117 0.0703 0.0781 0.10156 0.10547 c 0.0296,0 0.0583,-1e-5 0.0879,0 0.0265,1e-5 0.0537,-4e-5 0.0801,0 0.0358,6e-5 0.0716,-2.2e-4 0.10742,0 0.0439,0 0.087,9.1e-4 0.13086,0.002 0.042,0.002 0.085,0.004 0.12695,0.008 0.0299,0.002 0.0598,0.003 0.0899,0.004 0.0356,0.002 0.0702,0.005 0.10547,0.01 0.0283,0.004 0.0555,0.01 0.084,0.008 0.0296,0 0.0584,10e-5 0.0879,-0.002 0.0346,-0.002 0.0708,-0.008 0.10547,-0.008 0.0317,0 0.062,9e-5 0.0937,-0.002 0.0484,-0.003 0.0962,-0.009 0.14453,-0.0117 0.0564,-0.002 0.11372,-0.005 0.16992,-0.01 0.0379,-0.003 0.0757,-0.004 0.11328,-0.01 0.0367,-0.006 0.0748,-0.0106 0.11133,-0.0176 0.0443,-0.007 0.0883,-0.0135 0.13281,-0.0195 0.0306,-0.005 0.0601,-0.0105 0.0899,-0.0195 0.0346,-0.007 0.0707,-0.01 0.10547,-0.0156 0.0282,-0.004 0.0559,-0.0116 0.084,-0.0156 0.0335,-0.003 0.066,-0.002 0.0996,-0.002 0.0251,-3e-5 0.0511,1.5e-4 0.0762,0 0.023,-10e-5 0.0455,-9.5e-4 0.0684,-0.002 0.0254,-0.001 0.0509,-0.002 0.0762,-0.004 0.0313,-0.003 0.0623,-0.007 0.0937,-0.008 0.0349,-0.002 0.0687,-0.004 0.10352,-0.008 h 0.002 l 0.0605,-0.0605 23.56836,-0.082 23.56836,-0.0801 -3.23438,-2.40039 -3.23633,-2.40039 -3.70703,-3.67969 -3.70703,-3.68164 -2.42773,-3.19922 -2.42774,-3.20117 -1.35742,-2.23828 -1.35742,-2.24219 -2.0332,-4.1582 -2.03125,-4.16016 -1.28516,-3.83984 -1.28516,-3.8418 -0.82031,-4 -0.82226,-4 -0.3711,-4.76367 -0.37109,-4.76563 0.39844,-5.11523 0.39648,-5.11524 0.77734,-3.67187 0.7793,-3.67188 0.81641,-2.62109 0.81836,-2.62305 -3.57618,-7.34375 -3.57421,-7.3457 -2.16407,-4.48047 -2.16406,-4.48047 -2.88086,-5.91992 -2.88281,-5.91992 -3.73633,-7.679685 -3.73828,-7.679687 -1.79492,-3.759766 -1.79297,-3.759766 H 141.27 Z m -25.38476,52.558591 -0.28907,0.36133 -0.29101,0.35937 -2.94922,6.08008 -2.95117,6.08008 -1.72461,3.56836 -1.72656,3.57031 v 0.47656 0.47461 l 1.2871,0.51563 1.28711,0.51367 h 1.5293 1.53125 l 1.60352,-0.79883 1.60351,-0.79883 0.69922,-1.24414 0.69922,-1.24414 v -2.75195 -2.75 l 0.7207,-0.1582 0.71875,-0.15821 2.04297,-0.34961 2.04297,-0.34961 0.29102,0.29297 0.29296,0.29297 0.17579,2.20899 0.17578,2.20898 -0.49024,2.30273 -0.48828,2.30274 -1.13086,1.76562 -1.1289,1.76758 -1.53125,1.1211 -1.53125,1.12109 -1.90235,0.65039 -1.90234,0.64844 -2.57813,-0.01 -2.57617,-0.01 -1.76172,-0.64649 -1.75976,-0.64453 -0.51758,-0.16992 -0.51758,-0.17188 -2.44336,5.02149 -2.441397,5.01953 v 0.28516 0.28711 h 7.216787 7.2168 l 2.30469,-0.50977 2.30273,-0.50781 2.71875,-1.29297 2.7207,-1.29102 2.72461,-2.75976 2.72461,-2.75977 1.02735,-2.09961 1.02539,-2.10156 0.52343,-2.21875 0.52344,-2.21875 -0.16406,-3.04102 -0.16211,-3.03906 -0.78906,-2.08789 -0.79102,-2.08789 -1.02734,-1.66992 -1.02735,-1.66992 -1.81445,-1.61719 -1.8125,-1.61719 -1.76172,-0.84179 -1.75976,-0.8418 -1.99414,-0.38477 z m 21.1875,92.63477 c -0.01,0.001 -0.0195,0.003 -0.0293,0.004 0.01,0.0268 0.02,0.0532 0.0293,0.0801 z" />
    <path
       style="display:inline;fill:#070707"
       d="m 141.16885,253.61475 -6.96,0.0862 v -16.80624 -16.80624 h 1.12 1.12 v 15.49972 15.49973 l 1.04,0.10027 1.04,0.10028 3.76,-0.0988 3.76,-0.0988 v -15.52146 -15.52146 l 1.04,0.10027 1.04,0.10028 v 16.64 16.64 z m 92.88,0.0738 h -7.04 v -11.52 -11.52 h 0.29916 0.29917 l 0.82083,0.31208 0.82084,0.31208 v 9.92792 9.92792 h 4.64 4.64 v -10.04 -10.04 l 1,-0.2 1,-0.2 h 0.28 0.28 v 11.52 11.52 z"
       id="path2304" />
    <rect
       style="fill:#89b24b;fill-opacity:1;stroke-width:1.01226"
       id="rect2359"
       width="13.40357"
       height="13.825003"
       x="274.51355"
       y="171.66028" />
    <rect
       style="fill:#89b24b;fill-opacity:1"
       id="rect2360"
       width="14.659658"
       height="14.156603"
       x="245.36536"
       y="171.30676" />
    <rect
       style="fill:#89b24b;fill-opacity:1"
       id="rect2361"
       width="11.971725"
       height="12.091927"
       x="260.15271"
       y="185.79514" />
    <rect
       style="fill:#89b24b;fill-opacity:1"
       id="rect2362"
       width="13.557307"
       height="13.141835"
       x="259.91962"
       y="185.56578" />
    <rect
       style="fill:#89b24b;fill-opacity:1;stroke-width:1.00208"
       id="rect2363"
       width="14.538078"
       height="13.638409"
       x="260.0889"
       y="157.66049" />
    <rect
       style="fill:#89b24b;fill-opacity:1"
       id="rect2364"
       width="14.466227"
       height="13.734211"
       x="230.87201"
       y="157.45636" />
    <rect
       style="fill:#89b24b;fill-opacity:1"
       id="rect2365"
       width="14.217022"
       height="14.205662"
       x="245.672"
       y="143.25902" />
    <rect
       style="fill:#89b24b;fill-opacity:1"
       id="rect2366"
       width="14.272602"
       height="14.499352"
       x="246.73689"
       y="127.76061" />
    <rect
       style="fill:#89b24b;fill-opacity:1"
       id="rect2367"
       width="12.914612"
       height="13.504404"
       x="277.6651"
       y="140.47998" />
    <rect
       style="fill:#89b24b;fill-opacity:1"
       id="rect2368"
       width="13.413956"
       height="14.110287"
       x="217.63464"
       y="101.08017" />
    <rect
       style="fill:#89b24b;fill-opacity:1;stroke-width:1.02524"
       id="rect2369"
       width="14.472103"
       height="13.891495"
       x="230.94885"
       y="115.33841" />
    <rect
       style="fill:#89b24b;fill-opacity:1;stroke-width:1.01927"
       id="rect2370"
       width="13.968837"
       height="14.690212"
       x="203.72711"
       y="142.83514" />
    <rect
       style="fill:#89b24b;fill-opacity:1"
       id="rect2371"
       width="13.058987"
       height="13.75259"
       x="291.0202"
       y="93.424538" />
    <rect
       style="fill:#cbddaf;fill-opacity:1"
       id="rect2372"
       width="13.953722"
       height="13.997902"
       x="231.31396"
       y="101.13397" />
    <rect
       style="fill:#cbddaf;fill-opacity:1;stroke-width:1.02491"
       id="rect2373"
       width="13.390541"
       height="14.510483"
       x="217.67476"
       y="128.82527" />
    <rect
       style="fill:#cbddaf;fill-opacity:1"
       id="rect2374"
       width="14.314025"
       height="12.657962"
       x="268.71368"
       y="106.35464" />
    <rect
       style="fill:#cbddaf;fill-opacity:1"
       id="rect2375"
       width="14.316813"
       height="14.386515"
       x="231.04681"
       y="128.87506" />
    <rect
       style="fill:#cbddaf;fill-opacity:1"
       id="rect2376"
       width="14.0817"
       height="13.58452"
       x="299.06097"
       y="149.12053" />
    <rect
       style="fill:#cbddaf;fill-opacity:1;stroke-width:1.04604"
       id="rect2377"
       width="14.661293"
       height="14.599968"
       x="217.09865"
       y="171.26474" />
    <rect
       style="fill:#b4cf8d;fill-opacity:1;stroke-width:1.0123"
       id="rect2378"
       width="14.724983"
       height="13.794098"
       x="245.38043"
       y="157.43527" />
    <rect
       style="fill:#b4cf8d;fill-opacity:1"
       id="rect2379"
       width="14.608448"
       height="14.30794"
       x="261.25403"
       y="142.23007" />
    <rect
       style="fill:#b4cf8d;fill-opacity:1"
       id="rect2380"
       width="13.412889"
       height="13.491541"
       x="283.16638"
       y="120.05216" />
    <rect
       style="fill:#b4cf8d;fill-opacity:1;stroke-width:0.995518"
       id="rect2381"
       width="14.620206"
       height="14.276345"
       x="230.94476"
       y="128.94461" />
    <rect
       style="fill:#a2c372;fill-opacity:1;stroke-width:1.00476"
       id="rect2382"
       width="14.499279"
       height="14.19687"
       x="231.04108"
       y="143.25586" />
    <rect
       style="fill:#a2c372;fill-opacity:1;stroke-width:1.06437"
       id="rect2383"
       width="13.694305"
       height="14.354443"
       x="262.7518"
       y="126.45622" />
    <rect
       style="fill:#a2c372;fill-opacity:1"
       id="rect2384"
       width="13.331192"
       height="13.607761"
       x="255.35089"
       y="92.174812" />
    <rect
       style="fill:#5b9503;fill-opacity:1"
       id="rect2406"
       width="13.699455"
       height="13.57786"
       x="217.63148"
       y="115.30741" />
    <rect
       style="fill:#5b9503;fill-opacity:1;stroke-width:0.967762"
       id="rect2407"
       width="14.379884"
       height="14.111033"
       x="260.07016"
       y="171.40736" />
    <rect
       style="fill:#5b9503;fill-opacity:1;stroke-width:1.02859"
       id="rect2408"
       width="14.112663"
       height="13.623829"
       x="274.51898"
       y="157.62524" />
    <rect
       style="fill:#5b9503;fill-opacity:1"
       id="rect2409"
       width="13.857269"
       height="13.679422"
       x="249.37195"
       y="111.81573" />
    <rect
       style="fill:#5b9503;fill-opacity:1;stroke-width:0.979622"
       id="rect2410"
       width="14.297245"
       height="15.425175"
       x="231.01987"
       y="171.13773" />
  </g>
</svg>
